<svg width="675" height="675" viewBox="0 0 675 675" fill="none" xmlns="http://www.w3.org/2000/svg">
<rect width="675" height="675" rx="160" fill="black"/>
<path fill-rule="evenodd" clip-rule="evenodd" d="M139 346.764C158.942 337.155 182.555 338.144 201.74 349.731H201.741L257.174 383.213H257.175C276.952 395.16 289.042 416.582 289.042 439.69V500.2C289.042 511.057 286.372 521.543 281.488 530.851C271.541 525.649 260.816 519.773 249.87 513.61C251.921 509.511 253.042 504.934 253.042 500.2V439.69C253.042 429.356 247.719 419.762 238.979 414.286L238.562 414.028L183.129 380.546C173.746 374.88 162.032 374.791 152.577 380.281L152.129 380.546L139 388.476V346.764Z" fill="#53B6D3"/>
<path d="M234.269 295.116C234.269 283.548 240.438 272.857 250.453 267.068L325.672 223.594C335.944 217.657 348.641 217.811 358.767 223.994L429.105 266.95C438.739 272.834 444.616 283.309 444.616 294.597V376.312C444.616 386.926 439.416 396.867 430.698 402.921L366.315 447.628C355.712 454.991 341.751 455.356 330.778 448.559L249.605 398.277C240.07 392.371 234.269 381.953 234.269 370.737V295.116Z" stroke="white" stroke-width="36" stroke-miterlimit="10"/>
<path d="M156.436 271.115C156.436 247.559 168.774 225.724 188.953 213.571L303.422 144.63C324.795 131.758 351.542 131.792 372.882 144.718L486.51 213.547C506.605 225.72 518.881 247.507 518.881 271.002V399.349C518.881 423.142 506.295 445.16 485.792 457.233L372.167 524.142C351.183 536.499 325.155 536.532 304.141 524.228L189.67 457.206C169.085 445.154 156.436 423.09 156.436 399.237V271.115Z" stroke="white" stroke-width="36" stroke-miterlimit="10"/>
<path d="M156.436 271.115C156.436 247.559 168.774 225.724 188.953 213.571L303.422 144.63C324.795 131.758 351.542 131.792 372.882 144.718L486.51 213.547C506.605 225.72 518.881 247.507 518.881 271.002V399.349C518.881 423.142 506.295 445.16 485.792 457.233L372.167 524.142C351.183 536.499 325.155 536.532 304.141 524.228L189.67 457.206C169.085 445.154 156.436 423.09 156.436 399.237V271.115Z" stroke="white" stroke-width="36" stroke-miterlimit="10"/>
<path d="M330.865 513.222V551.24C330.865 551.24 340.811 551.885 349.804 550.631C358.796 549.377 366.836 546.223 366.836 546.223V505.236" fill="#4DF0FF"/>
<path d="M178.586 251.098C186.967 252.209 195.19 254.922 202.783 259.243L333.197 333.466C354.063 345.341 366.938 367.518 366.938 391.527V545.986C366.938 546.126 366.935 546.266 366.935 546.405C358.693 549.052 346.183 551.864 331.038 551.406C330.853 551.401 330.661 551.39 330.464 551.375C330.776 549.614 330.938 547.812 330.938 545.986V391.527C330.938 380.438 324.992 370.217 315.392 364.754L184.977 290.53C181.646 288.635 178.053 287.412 174.385 286.86C174.249 282.603 174.097 277.184 174.097 274.074C174.097 270.074 174.097 268.574 175.097 262.574C176.014 257.072 178.409 251.503 178.586 251.098Z" fill="#53B6D3"/>
</svg>
